<?xml version="1.0" encoding="utf-8"?>
<!-- Generator: Adobe Illustrator 16.0.0, SVG Export Plug-In . SVG Version: 6.00 Build 0)  -->
<!DOCTYPE svg PUBLIC "-//W3C//DTD SVG 1.1//EN" "http://www.w3.org/Graphics/SVG/1.1/DTD/svg11.dtd">
<svg version="1.1" id="Layer_1" xmlns="http://www.w3.org/2000/svg" xmlns:xlink="http://www.w3.org/1999/xlink" x="0px" y="0px"
	 width="719.043px" height="202.159px" viewBox="0 0 719.043 202.159" enable-background="new 0 0 719.043 202.159"
	 xml:space="preserve">
<g>
	<path fill="#ED1C24" d="M179.105,155.034h-16.718l24.686-60.925h-18.946h-24.964l8.882-21.922h21.064l63.022,0.143l21.122-0.143
		l-8.882,21.922h-44.58L179.105,155.034L179.105,155.034z M338.055,120.87l6.46-15.943l13.154-32.74h16.717l-8.421,20.784
		l-16.784,41.423c-1.451,3.581-3.578,6.835-6.379,9.759h-4.747c-6.036,0-11.095,4.391-12.143,10.136
		c-2.043,0.498-4.096,0.746-6.158,0.746h-63.081c-5.87,0-10.03-2.017-12.482-6.05s-2.525-8.896-0.218-14.591l25.205-62.207h16.717
		l-19.841,48.968c-1.23,3.037-0.969,5.694,0.783,7.972s4.634,3.416,8.646,3.416h43.912c3.566,0,7.25-1.162,11.053-3.487
		S336.786,124.002,338.055,120.87L338.055,120.87z M431.419,123.148h-49.038l-3.808,9.395l-4.703,11.609h-16.717l3.954-9.759
		l12.516-30.89h87.822l3.807-9.395h-87.822l8.883-21.922h21.063l63.022,0.143c6.058-0.095,10.351,1.684,12.884,5.338
		c2.531,3.653,2.316,9.134-0.645,16.442l-3.807,9.395c-2.922,7.212-6.743,12.289-11.464,15.231
		c-4.723,2.942-10.611,4.413-17.67,4.413l5.438,21.004h-18.278L431.419,123.148L431.419,123.148z M570.618,123.148h-63.08h-8.024
		l-4.038,9.964h35.553h35.553L570.618,123.148L570.618,123.148z M507.473,103.504h71.104l3.808-9.395h-87.822l8.882-21.922h21.064
		l63.022,0.143c6.057-0.095,10.351,1.684,12.883,5.338c2.532,3.653,2.316,9.134-0.644,16.442l-3.807,9.395
		c-2.527,5.504-7.629,9.11-15.306,10.818c6.677,0.76,9.049,3.891,7.115,9.396l-3.807,9.395c-1.75,4.318-3.941,7.998-6.574,11.04
		H474.286l16.47-40.648H507.473L507.473,103.504z M595.373,134.394l16.842-41.565c2.308-5.694,6.321-10.558,12.042-14.591
		c5.72-4.033,11.515-6.05,17.385-6.05l63.022,0.143c5.87,0,10.03,2.016,12.483,6.05c2.453,4.033,2.524,8.896,0.217,14.591
		l-16.783,41.423c-2.307,5.694-6.32,10.558-12.041,14.591s-11.516,6.05-17.386,6.05h-1.427c-0.728-6.107-5.96-10.882-12.255-10.882
		h-63.628C593.413,141.229,593.922,137.975,595.373,134.394L595.373,134.394z M689.455,120.87l6.46-15.943
		c0.633-2.847,0.092-5.361-1.625-7.544c-1.716-2.183-4.542-3.273-8.48-3.273h-43.242c-3.938,0-7.687,1.091-11.245,3.273
		c-3.561,2.183-6.029,4.792-7.408,7.829l-6.46,15.943c-1.23,3.037-0.97,5.694,0.782,7.972s4.635,3.416,8.646,3.416h43.354
		c3.938,0,7.809-1.162,11.611-3.487C685.649,126.73,688.186,124.002,689.455,120.87L689.455,120.87z"/>
	<path d="M391.655,181.586h8.991v10.763h-12.874h-38.553c-3.588,0-6.631-0.965-9.128-2.895s-3.746-4.257-3.746-6.981v-19.891
		c0-8.116,2.475-9.914,10.217-9.876v15.803v7.629c0,1.453,0.817,2.725,2.452,3.814s3.678,1.634,6.13,1.634h26.837H391.655
		L391.655,181.586z M451.105,192.349h-10.218v-29.153v-10.489h10.218v10.489v4.359v8.583V192.349L451.105,192.349z M501.974,152.706
		h-10.49v10.489h10.354l43.73,29.153h10.218v-9.876v-29.767h-10.218v15.258v13.622L501.974,152.706L501.974,152.706z M501.7,167.964
		v9.809v14.576h-10.217v-24.385H501.7L501.7,167.964z M651.336,181.586h8.992v10.763h-12.874H608.9c-3.587,0-6.63-0.965-9.128-2.895
		c-2.497-1.931-3.746-4.257-3.746-6.981v-14.781h64.302v9.399h-54.084v4.495h8.582h26.838H651.336L651.336,181.586z
		 M596.026,163.195v-0.613c0-2.724,1.249-5.052,3.746-6.981s5.541-2.9,9.128-2.895l38.554,0.068
		c10.384,0.018,12.874-0.209,12.874,10.421h-45.434h-3.61H596.026L596.026,163.195z"/>
	<path fill-rule="evenodd" clip-rule="evenodd" fill="#58595B" d="M62.95,23.621c-0.438-1.301-2.879-6.004-3.577-6.782
		c-0.628-0.703-7.724-4.58-9.476-5.385c-0.731-0.335-0.733-0.37-1.37-0.735c-0.999-0.57-1.764-0.747-2.974-1.001
		c-6.63-1.398-3.679,4.079-6.306,12.559c-0.023,0.073-0.059,0.175-0.083,0.247c-0.765,2.284-1.668,6.507-2.703,8.493
		c-1.591,3.057,0.213,5.415,2.766,6.616l3.006,1.517c0.068,0.033,0.167,0.077,0.235,0.111l2.54,1.293
		c0.236,0.104,0.463,0.196,0.71,0.318c0.067,0.034,0.163,0.084,0.229,0.119l5.573,2.759c1.06,0.557,1.713,0.869,2.783,1.385
		c0.068,0.033,0.166,0.081,0.232,0.116c0.067,0.034,0.161,0.087,0.228,0.124c0.066,0.036,0.157,0.096,0.223,0.132
		c0.628,0.345,0.09,0.144,0.678,0.383c1.257,0.513,0.741,0.428,3.415-0.473c2.921-0.984,4.105-11.894,4.282-14.65
		C63.608,26.925,64.267,27.528,62.95,23.621L62.95,23.621z M21.095,50.868c1.518-0.939,5.181-6.829,6.171-8.507
		c1.632-2.768,0.754-0.875,1.626-2.664l4.315-8.271c0.442-0.934,0.454-1.291,0.875-2.168l0.924-2.144
		c0.027-0.072,0.066-0.173,0.093-0.243l1.222-3.732c0.411-1.128,1.072-3.375,1.006-4.417c-0.849,0.674-0.683,1.002-1.005,2.104
		l-1.235,3.436c-0.031,0.069-0.076,0.168-0.106,0.237l-6.963,15.056l-4.597,7.552C22.76,48.075,21.383,49.959,21.095,50.868
		L21.095,50.868z M19.862,47.943l6.414-10.701c2.161-4.157,3.962-8.448,5.908-12.686l0.519-1.188
		c1.662-4.778,3.309-9.816,3.872-14.853c0.159-1.427,0.002-3.502-0.453-4.853C34.729-0.47,26.007,8.947,24.733,10.45l-4.599,6.106
		c-0.548,0.739-0.787,0.921-1.307,1.666l-1.018,1.809c-0.455,0.793-0.719,1.057-1.162,1.737c-2.542,3.9-5.566,9.256-7.213,13.485
		c-0.008,0.022-0.176,0.464-0.184,0.486l-1.484,3.313c-0.029,0.07-0.068,0.172-0.096,0.241c-0.028,0.071-0.068,0.171-0.096,0.242
		l-2.965,8.073c-1.14,4.291-3.018,9.633-1.554,13.978c1.06,3.148,6.491-0.914,6.944-2.339c-1.339,0.579-1.729,1.1-3.435,1.123
		c-3.129,0.042-2.831-3.563-2.272-5.689c0.133-0.505,0.234-0.674,0.36-0.978c1.235,3.668,2.605,6.077,5.592,3.352
		c1.073-0.978,1.833-2.155,2.655-3.311l2.332-3.471c0.274-0.385,0.292-0.42,0.446-0.646c0.043-0.064,0.107-0.151,0.149-0.216
		c0.042-0.063,0.104-0.152,0.146-0.216l5.518-8.542c2.243-3.671,4.086-7.617,5.732-11.617l4.362-11.429
		c0.692-1.51,0.835-4.156,2.132-5.016c0.152,2.382-2.621,8.655-3.402,11.037c-1.2,3.669-2.683,7.131-4.113,10.685
		c-1.405,3.495-3.471,6.834-5.465,10.014c-1.292,2.06-5.099,7.531-5.771,9.284l-0.116,0.521c1.594-0.689,0.542-0.046,1.458-1.301
		l2.935-4.039C19.5,48.46,19.582,48.388,19.862,47.943L19.862,47.943z M143.228,65.56l-3.015-2.966
		c-1.935-1.492-3.758-3.205-5.913-4.403l-2.392-1.592c-0.817-0.645-0.939-0.714-1.744-1.148l-9.679-5.559
		c-0.066-0.038-0.159-0.092-0.225-0.129L99.545,37.884c-0.756-0.424-1.016-0.605-1.788-1.06L76.596,24.68
		c-2.257-1.032-4.153-2.438-6.291-3.642c-1.191-0.671-1.959-1.265-3.312-1.485c0.61,1.952,0.348,4.471-0.072,6.327
		c-0.228,1.01-0.041-0.197-0.194,1.06c-0.007,0.06-0.047,0.653-0.068,0.834c-0.302,2.604-0.843,5.104-1.513,7.636
		c-1.367,5.168-2.417,10.182-4.578,15.082l-2.031,4.487c-0.34,0.628-0.494,0.98-0.81,1.623c-2.708,5.506-6.918,10.734-11.471,14.844
		l-1.066,0.917c-0.837,0.789-0.791,1.084-2.005,1.608c0.476-1.753,2.259-3.463,3.41-4.959l4.396-6.207
		c0.04-0.065,0.092-0.159,0.131-0.225l0.706-1.096c0.009-0.016,0.398-0.619,0.42-0.658c1.235-2.224,2.396-4.597,2.363-7.215
		c-0.053-4.358-1.104-4.651-4.473-6.486l-9.278-4.618c-0.068-0.033-0.165-0.08-0.234-0.111c-7.935-3.722-8.926-6.787-13.178,1.792
		c-1.061,2.137-1.946,3.858-2.935,6.063c-0.917,2.048-2.021,4.029-3.353,5.856l-1.437,2.18c-0.04,0.064-0.098,0.156-0.137,0.22
		c-1.789,2.914-1.627,4.78,1.076,6.647c1.63,1.126,2.656,1.473,4.821,1.36c0.91-0.049,1.547-0.245,2.448-0.272
		c4.788-0.144,5.813,0.159,7.258,3.441c0.703,1.596,1.693,2.354,2.915,3.453c1.31,1.178,1.737,1.978,2.607,3.492
		c0.701,1.222,1.635,2.936,2.793,3.698c2.439,1.607,1.832,1.824,0.484,5.032c-1.836,4.371,0.533,4.729-1.366,6.534
		c-2.28,2.169-4.272,5.076-5.89,7.8l-3.416,6.692c-2.199,5.192-3.286,10.049-4.189,15.563c-0.126,0.767-0.206,0.887-0.304,1.874
		c-0.251,2.503-0.15,4.977-0.073,7.482c0.042,1.36,0.657,2.539,0.265,3.891c-0.73-2.166-1.626-6.736-1.668-8.636l0.143-11.785
		l1.346-7.143c0.187-0.702,0.258-1.165,0.4-1.824c0.156-0.736,0.335-0.786,0.142-1.665c-1.243,0.989-2.746,5.688-3.18,7.099
		l-1.859,6.598c-0.019,0.075-0.046,0.179-0.063,0.257s-0.041,0.183-0.057,0.261c-0.768,4.025-1.027,8.695-0.605,13.003
		c0.201,2.048,0.23,2.26,1,4.545l-0.347,0.118c-0.96-2.85-1.081-4.354-1.993-7.062c-0.507,0.72-0.481,1.642-0.594,2.598
		c-1.544,12.908,3.818,28.047,11.751,37.883c0.183,0.228,0.358,0.427,0.538,0.663l1.461,1.721c0.081,0.075,0.321,0.278,0.4,0.357
		c0.06,0.059,0.133,0.135,0.192,0.195l4.396,4.549c0.06,0.051,0.469,0.431,0.595,0.552l3.625,3.187
		c0.323,0.265,0.471,0.418,0.604,0.53l1.254,0.971c0.193,0.14,0.394,0.278,0.641,0.457l10.124,6.409
		c1.038,0.647,1.752,0.743,2.406,1.563c-1.558,0.101-3.199-1.141-4.575-1.855l-5.386-3.134c-0.065-0.038-0.162-0.087-0.227-0.126
		c-2.778-1.663-5.73-3.615-8.115-5.796c-0.782-0.716-0.502-0.444-1.234-1.01c-5.063-3.91-6.99-7-10.542-11.398
		c-3.783-4.686-6.276-9.99-8.167-15.604c-3.173-9.42-3.218-17.727-2.515-27.275c0.288-3.901,1.334-8.007,2.347-11.85
		c0.114-0.432,0.125-0.581,0.242-1.036l1.92-5.988c1.54-4.204,3.116-8.496,5.076-12.52c0.29-0.595,0.169-0.35,0.474-0.922
		c1.006-1.89,1.781-4.031,2.999-5.761l0.489-0.609c0.839-1.276-0.861-0.993,1.144-2.321l-0.468-1.39
		c-1.227-0.028-2.398-0.903-3.807-1.07c-2.129-0.252-2.139-0.02-4.768,0.866c0.021-0.914,0.894-2.313,1.448-3.332
		c2.834-5.214-2.163-4.934-3.327-4.542c-1,0.337-0.215,4.347-0.91,5.333c-1.168-0.37-1.855-1.381-2.969-2.179L3.765,65.987
		c0.636-0.215,1.289-0.525,1.618-0.933c-1.951,0.481-3.972-0.316-4.641-2.302c-0.634-1.883-0.817-2.77-0.715-4.693l0.719-5.716
		c0.873-3.979,2.204-8.011,3.64-11.787l0.17-0.495c0.025-0.073,0.052-0.178,0.076-0.251c0.088-0.264,0.225-0.678,0.348-0.984
		l1.602-3.833c1.235-3.173,3.434-6.689,5.045-9.644l1.991-3.64c2.545-4.347,5.417-8.623,8.722-12.447
		c0.053-0.061,0.125-0.14,0.178-0.202l4.463-4.726c0.511-0.507,0.99-1.024,1.599-1.521c2.615-2.131,4.269-2.625,7.417-2.356
		c2.804,0.239-0.577-0.98,1.785-0.186c2.624,0.883,10.625,5.289,13.471,6.701c2.258,1.12,12.101,5.506,13.665,6.851
		c1.242,1.068,0.558,1.299,1.777,2.248l5.426,3.055c1.893,0.861,7.689,4.247,9.935,5.625c1.539,0.944,2.688,1.704,4.254,2.5
		l17.294,10.029c0.894,0.483,1.421,0.72,2.288,1.219l2.005,1.205c0.064,0.04,0.155,0.099,0.222,0.136l16.449,9.4
		c0.375,0.213,0.671,0.382,1.117,0.663l4.27,2.467c3.765,2.009,5.05,3.207,7.749,4.785l0.46,0.24c1.681,0.935,4.084,2.89,6.36,4.963
		L143.228,65.56L143.228,65.56z M168.887,104.77c0.286,1.354,0.536,2.694,0.745,3.996l-2.241,5.532
		c-0.296-3.115-0.845-6.379-1.536-9.528H168.887L168.887,104.77z M155.977,165.695c-3.703,5.21-5.764,7.627-11.264,13.286
		l-4.442,3.87c-0.505,0.407-0.786,0.686-1.272,1.105c-3.764,3.24-8.654,6.361-13.36,8.412c-2.636,1.146-4.351,2.594-7.673,3.713
		l-9.375,3.158c-2.992,1.009-5.633,1.072-8.67,1.737c-6.291,1.378-13.645,1.362-20.111,0.899l-14.407-2.439
		c-0.087-0.018-0.853-0.178-1.042-0.23l-2.238-0.736c-0.104-0.03-0.408-0.106-0.511-0.137l-2.992-0.963
		c-1.7-0.479-3.182-1.348-4.799-1.984l-3.551-1.588c-0.068-0.032-0.168-0.075-0.237-0.104l-6.154-3.335
		c-0.092-0.054-0.355-0.21-0.447-0.266l-7.538-5.211c-0.083-0.071-0.322-0.277-0.407-0.346l-0.625-0.49
		c-0.062-0.048-0.15-0.11-0.211-0.157c-2.775-2.143-5.525-4.719-7.934-7.328c-0.871-0.943-1.693-2.024-2.568-2.985l-1.46-1.721
		c-0.057-0.071-0.124-0.148-0.18-0.219l-3.062-4.325c-8.941-11.861-13.994-29.313-13.6-44.477c0.002-0.092,0.012-0.192,0.014-0.283
		c0.138-7.734,1.43-15.314,3.725-22.733l1.308-3.98c0.158-0.48,0.174-0.578,0.335-0.99l3.952-8.451c0.388-0.781,0.596-1.116,1-1.816
		l0.258-0.452c0.833-1.505,1.657-3.546,3.127-4.522c1.684,0.535,0.206,0.54,1.739,0.574c0.335,1.354,0.224,1.168-0.385,2.123
		l-3.074,5.126c-1.362,2.762-2.712,5.322-3.779,8.248l-0.262,0.737c-0.027,0.071-0.065,0.173-0.092,0.244
		c-0.027,0.071-0.068,0.17-0.096,0.241l-0.291,0.724c-0.157,0.415-0.195,0.506-0.344,0.986c-0.243,0.779-0.324,1.331-0.547,2.042
		c-0.08,0.254-0.245,0.673-0.375,0.97l-1.42,4.79c-1.15,4.773-1.704,9.752-1.948,14.65c-0.022,0.43-0.007,0.626-0.023,1.146
		c-0.129,4.33,0.364,7.022,0.58,10.409c0.104,1.636,0.634,3.18,0.816,4.743c0.518,4.439,2.892,10.548,4.525,14.677
		c2.012,5.092,3.908,8.946,6.996,13.297c1.577,2.221,2.877,4.462,4.676,6.317l1.107,1.268c0.308,0.366,0.947,1.153,1.283,1.495
		l10.203,9.166c0.062,0.047,0.15,0.109,0.213,0.153l11.562,7.01c0.094,0.051,0.36,0.199,0.455,0.249l12.594,4.929
		c0.076,0.02,0.181,0.044,0.258,0.064l5.38,1.394c0.077,0.021,0.179,0.05,0.255,0.069l5.308,0.96
		c0.472,0.085,1.153,0.111,1.664,0.145c1.341,0.087,2.23,0.217,3.558,0.406c1.896,0.27,5.684,0.392,7.659,0.303l6.034-0.504
		c3.364-0.135,6.944-0.948,10.315-1.556c1.662-0.3,2.498-0.392,4.242-0.974c2.046-0.685,2.496-0.485,4.292-1.034
		c2.014-0.615,10.658-4.501,12.569-5.643c4.237-2.529,9.196-5.297,12.67-8.465c3.773-3.439,7.735-6.432,10.878-10.511
		c1.257-1.633,2.845-3.224,4.035-4.882H155.977L155.977,165.695z"/>
	<path fill-rule="evenodd" clip-rule="evenodd" fill="#58595B" d="M115.374,147.078c-1.898-3.067-7.033-9.182-9.433-12.469
		c-0.455-0.623-0.914-1.512-1.274-2.095c-0.429,0.926-0.642,1.207-1.334,1.941c-0.682,0.724-1.037,1.112-1.667,1.776l9.304,12.743
		c0.644,0.53,0.829,0.448,2.062-0.407C114.13,147.804,113.699,147.685,115.374,147.078L115.374,147.078z M97.73,137.172
		l-4.174-0.914l-2.044,12.001c-0.237,1.639,0.292,0.896-0.693,1.68c0.844,2.332,2.286,1.557,5.453,2.417
		c-0.143-1.477,0.231-2.262,0.394-3.564c0.065-0.517,0.025-0.253,0.063-0.837L97.73,137.172L97.73,137.172z M122.722,126.431
		c-1.675,0.162-2.899-0.071-4.575-0.105l-7.379-0.281c-0.091-0.004-0.194-0.007-0.285-0.009c-1.833-0.06-3.554-0.418-5.375-0.242
		c1.168,3.466-0.209,2.631,0.596,5.212c1.798-0.173,8.411,0.623,10.874,0.816c0.374,0.029,0.992,0.099,1.104,0.108l3.024,0.314
		c0.772,0.087,1.265,0.055,2.035-0.02C123.086,130.106,122.952,128.817,122.722,126.431L122.722,126.431z M91.465,134.643
		c-0.937-0.961-1.769-1.808-2.329-3.469c-2.101,1.3-9.018,6.467-11.099,7.221c1.451,1.489,1.529,3.208,3.143,4.74
		c1.114-0.482,5.973-5.03,7.845-6.521c0.778-0.619,0.683-0.584,1.303-1.089C90.956,135.013,90.902,135.191,91.465,134.643
		L91.465,134.643z M103.946,124.638c-0.881-2.616-3.361-5.072-5.649-5.519c-2.517-0.49-5.804,0.237-7.41,2.223l-0.703,1.098
		c-2.972,5.146-0.2,11.475,4.486,13.322l0.996,0.325c2.746,0.673,5.891-0.528,7.61-2.816
		C105.202,130.708,104.999,127.765,103.946,124.638L103.946,124.638z M118.163,114.048c-0.453-1.048-1.426-2.032-2.093-2.776
		c-2.465-2.748-1.882-1.633-5.675,0.949c-0.311,0.211-1.3,0.958-1.608,1.227c-0.661,0.576-0.102,0.12-0.777,0.771l-6.977,5.215
		c1.678,1.292,2.781,2.517,3.49,4.623l12-8.797C117.245,114.777,117.311,114.575,118.163,114.048L118.163,114.048z M88.419,124.457
		c-0.787,0.076-8.178-1.281-9.92-1.571c-0.082-0.013-0.187-0.031-0.267-0.044c-0.201-0.032-0.521-0.065-0.81-0.118
		c-0.575-0.104-0.712-0.156-1.291-0.313c0.126,1.969-0.787,3.244-0.098,5.446c2.261-0.218,4.063,0.423,6.259,0.791
		c1.271,0.213,2.013,0.216,3.264,0.417c0.975,0.158,2.063,0.434,2.995,0.374C87.969,127.711,88.007,125.978,88.419,124.457
		L88.419,124.457z M86.289,111.26c-0.945-1.169-1.128-1.063-1.974-2.433c-0.616,0.382-1.269,0.912-1.778,1.434
		c-0.648,0.663-0.543,0.736-1.11,1.473l8.036,10.063l2.878-2.913L86.289,111.26L86.289,111.26z M96.58,103.922
		c0.113,1.175-0.079,1.146-0.189,2.22l-0.484,6.701c-0.108,1.896-0.42,3.794,0.023,5.217c1.436-0.139,2.997-0.013,3.828,1.03
		l1.041-0.351l1.31-13.232c0.027-0.981,0.302-0.228-0.199-1.834C100.034,103.794,99.092,103.076,96.58,103.922L96.58,103.922z
		 M122.817,119.826c1.215,3.607,1.608,7.331,1.299,11.057l-0.211,2.786c-0.687,4.279-2.229,6.898-4.344,10.282l-0.426,0.655
		c-0.269,0.377-0.295,0.406-0.663,0.828c-7.418,8.524-19.574,11.043-28.826,6.287l-1.143-0.61c-0.093-0.051-0.364-0.195-0.458-0.247
		l-1.35-0.775c-5.439-3.259-8.685-8.261-10.761-14.138c-0.893-2.529-1.481-5.097-1.639-7.8c-0.052-0.868,0.103-1.635,0.161-2.522
		c0.052-0.807,0.019-1.474,0.131-2.249c0.301-2.058,1.865-6.48,2.981-8.643c0.89-1.729,2.973-4.463,4.34-5.656l1.62-1.511
		c0.488-0.443,1.62-1.161,2.149-1.537c3.15-2.235,8.061-3.616,12.014-3.77c3.958-0.152,9.247,0.876,12.475,2.836l3.711,2.431
		c1.36,1.102,2.102,1.787,3.333,3.191C119.591,113.435,121.652,116.37,122.817,119.826L122.817,119.826z"/>
	<path fill-rule="evenodd" clip-rule="evenodd" fill="#58595B" d="M140.132,104.77c1.057,3.648,1.926,8.581,1.577,11.702
		l-0.808,7.696c-0.366,2.509-0.761,4.914-1.614,7.298c-0.026,0.072-0.067,0.172-0.092,0.243l-2.246,6.694l-2.608,5.358
		c-0.038,0.064-0.089,0.161-0.127,0.227l-1.887,3.401c-0.729,1.317-1.957,2.632-2.34,4.045c0.686-0.297,0.378-0.163,0.785-0.478
		l5.595-7.637c0.037-0.065,0.084-0.164,0.12-0.229c0.037-0.065,0.085-0.163,0.124-0.228l2.186-4.122
		c2.18-3.855,3.143-8.361,4.388-12.572l0.159-0.5c0.569,1.824-0.707,6.565-1.269,8.626c-0.065,0.238-0.157,0.513-0.242,0.747
		c-0.026,0.072-0.069,0.171-0.097,0.241c-0.027,0.071-0.069,0.17-0.097,0.242l-2.785,7.294c-0.638,1.637-1.473,2.848-2.26,4.373
		c-0.271,0.525-0.059,0.168-0.308,0.716c-0.031,0.068-0.069,0.17-0.102,0.238c-0.881,1.858,0.715-0.979-0.798,1.339
		c-1.979,3.028-4.011,5.67-6.381,8.403l-3.376,3.242c-0.065,0.058-0.144,0.126-0.208,0.186c-3.412,3.171-7.272,5.543-11.344,7.678
		c-4.519,2.369-9.375,3.719-14.4,4.484c-2.501,0.38-5.444,0.25-7.916,0.215c-1.482-0.021-0.397,0.075-1.664-0.144
		c-1.881-0.326-3.745-0.428-5.611-0.933l-6.794-2.045c-2.803-1.241-3.982-1.563-6.809-3.181l-2.94-1.655
		c-1.703-0.94-5.688-3.499-6.405-5.159c0.447,0.026,5.938,3.313,7.269,4.003l5.739,2.422c0.074,0.025,0.177,0.055,0.251,0.079
		c0.074,0.022,0.177,0.053,0.25,0.076c2.888,0.911,5.433,1.695,8.529,2.048c0.593,0.066,1.311,0.197,1.896,0.257
		c0.995,0.103-0.156-0.006,0.84,0.059c0.114,0.007,0.45,0.017,0.564,0.026c0.087,0.008,0.192,0.015,0.278,0.023
		c0.084,0.008,0.188,0.021,0.272,0.032c1.683,0.195,3.696,0.085,5.505-0.02c3.862-0.223,6.948-1.024,11.037-2.429
		c3.058-1.05,5.511-1.196,8.773-2.582c4.765-2.023,9.756-5.145,13.388-8.688c2.16-2.105,5.794-9.138,7.009-11.851l3.414-9.585
		c0.368-1.361,0.666-1.936,0.906-3.311c0.089-0.513,0.203-1.074,0.284-1.595c0.873-5.615,1.736-11.521,0.387-17.159
		c-0.624-2.607-1.428-5.165-2.447-7.615H140.132L140.132,104.77z M130.811,96.207c-0.354-0.462-0.72-0.916-1.1-1.359l-5.772-5.271
		c-2.003-1.654-4.403-3.355-6.736-4.495c-1.168-0.57-2.343-1.268-3.504-1.681l-4.758-1.484c-0.075-0.02-0.178-0.052-0.253-0.073
		l-4.443-0.954c-2.078-0.293-4.257-0.639-6.377-0.554c-1.641,0.065-2.706,0.116-4.402,0.128c-8.045,0.062-15.919,3.015-23.066,6.426
		c-3.145,1.5-6.108,3.794-8.787,6.053c-2.246,1.894-4.188,4.01-6.098,6.23c-0.901,1.048-0.819,1.072-1.515,2.14
		c-1.381,2.123-2.749,4.144-3.827,6.489c-0.584,1.271-1.123,3.947-2.113,4.735c-0.075-1.164,0.497-2.397,0.933-3.586
		c1.827-4.974,4.51-9.325,7.788-13.489l0.882-1.009c0.751-0.758,0.998-1.01,1.695-1.761c1.441-1.557,2.582-2.399,4.161-3.721
		l1.411-1.325c7.839-6.042,19.023-10.43,29.045-11.125c2.186-0.151,3.907-0.367,5.852-0.139c1.347,0.159,0.421,0.358,2.109-0.169
		c-0.594-0.894-0.17-0.518-1.219-1.042c-0.271-0.135-0.513-0.187-0.731-0.274l-4.423-2.161c-0.095-0.05-0.363-0.195-0.458-0.244
		L93.7,71.828c-1.667-0.813-2.489-1.48-3.837-2.759c-1.401,0.867-1.783,1.665-3.806,2.45c-1.735,0.673-3.835,1.124-5.497,1.901
		c-5.237,2.448-8.161,2.19-12.417-0.79l-5.281-3.347c-4.853-3.506-4.568-4.417-10.899,0.653c-0.55,0.44-0.181,0.129-0.822,0.749
		c-1.03,0.994,0.139,0.057-1.054,0.924c-1.203,0.874-1,1.003-2.5,1.651c0.496-1.562-0.072-0.128,0.887-1.295
		c1.987-2.419,6.494-7.377,9.394-8.354c0.832-0.281,1.478,0.193,2.098,0.437l6.11,2.84c0.758,0.316,0.068-0.042,0.958,0.4
		c0.894,0.444,0.188,0.11,0.897,0.523c1.096,0.638,5.497,2.542,6.411,2.235c1.314-0.443,1.956-1.018,2.838-1.774l3.564-3.727
		c1.042-1.118,1.038-1.3,1.799-2.289c-1.344-1.688-6.496-3.796-8.986-4.623c-1.508-0.501-1.785-0.365-3.083-1.364
		c1.098-0.07,1.455,0.27,2.596,0.597c0.88,0.253,1.715,0.399,2.543,0.704l8.309,3.654c0.375,0.168,0.108,0.023,0.47,0.22
		c0.483,0.262,0.291,0.178,0.656,0.425l1.073,0.752c0.488,0.34,0.616,0.409,1.057,0.785c2.05,1.748,2.78,3.665,5.335,4.986
		c0.442,0.229,0.3,0.164,0.691,0.355l3.954,1.941c0.526,0.225,0.453,0.176,0.726,0.285c0.9,0.361,1.425,0.655,2.398,0.996l2.94,1.07
		c3.057,1.24,6.35,1.991,9.293,3.419c0.067,0.033,0.161,0.09,0.229,0.123l0.694,0.349c0.069,0.029,0.169,0.07,0.24,0.099
		c0.481,0.195,0.759,0.257,1.22,0.457c2.945,1.274,5.669,3.072,8.326,4.788l2.752,2.031c1.384,1.156,2.824,2.224,4.026,3.542
		c0.952,1.043,1.932,2.187,2.839,3.351L130.811,96.207L130.811,96.207z"/>
	<path fill-rule="evenodd" clip-rule="evenodd" fill="#58595B" d="M38.3,104.228c-0.088,0.552,0.149-0.001-0.145,1.083
		c-0.139,0.516-0.215,0.49-0.372,0.973l-2.149,10.502c-0.047,0.334-0.122,0.903-0.138,1.089c-0.036,0.422-0.019,0.635-0.058,1.127
		l-0.243,2.772c-0.003,0.091-0.007,0.193-0.01,0.284l0.138,6.142c-0.113,3.364,1.324,8.988,2.516,12.526
		c2.062,6.118,4.95,10.221,8.564,14.801l6.886,7.11c3,2.776,10.176,7.744,13.907,9.275l8.071,2.969
		c1.954,0.664,4.037,0.906,5.984,1.348l9.479,0.711c1.28-0.011,1.326-0.115,2.733-0.264c8.301-0.874,18.341-4.254,25.229-9.152
		l6.994-5.207c1.996-1.631,4.17-3.789,5.78-5.81l2.512-3.092c3.536-4.791,6.887-9.88,9.007-15.488
		c1.149-3.041,2.215-6.082,2.967-9.228c0.324-1.356,0.46-2.73,0.98-3.853c0.545,2.204-1.871,11.744-3.158,14.629
		c-0.032,0.068-0.082,0.164-0.112,0.233l-2.629,6.505c-0.085,0.193-0.19,0.454-0.305,0.717c-1.393,3.203-4.026,7.062-6.176,9.95
		l-0.316,0.422c-0.293,0.365-0.282,0.328-0.528,0.605c-2.055,2.313-4.024,4.87-6.187,7.053c-1.121,1.131-1.756,1.698-3.104,2.799
		l-8.225,6.044l-1.424,1.316c2.313-0.778,4.663-1.529,6.963-2.33c4.856-1.689,14.592-8.798,16.171-9.331
		c-0.052,0.072-0.138,0.16-0.176,0.202l-0.364,0.397c-1.847,1.859-4.272,4.047-6.402,5.501c-1.184,0.809-1.43,0.978-2.42,1.692
		c-3.288,2.373-7.387,5.196-11.332,6.525c-13.634,4.594-10.67,3.436-23.868,4.393c-7.669,0.557-18.679-1.656-25.366-5.415
		l-0.446-0.268c-0.093-0.053-0.354-0.215-0.448-0.264l-3.51-1.671c-1.875-0.98-3.467-2.223-5.255-3.396l-8.53-7.292
		c-10.034-10.088-15.457-21.051-15.927-35.522l-0.12-3.53c0.212-3.494,0.639-6.944,1.224-10.382l1.052-4.396
		C36.437,108.241,37.22,105.632,38.3,104.228L38.3,104.228z"/>
	<path fill-rule="evenodd" clip-rule="evenodd" fill="#58595B" d="M133,115.623c0.539,1.6,0.449,2.135,0.844,3.6
		c0.631,2.334,0.307,1.861,0.483,3.421c0.258,2.281,0.422,4.169,0.312,6.516c-0.134,2.846-0.597,4.689-1.268,7.18
		c-0.744,2.758-2.103,5.808-4.501,9.914c-0.039,0.066-0.092,0.16-0.13,0.226c-0.038,0.064-0.092,0.16-0.13,0.225
		c-1.36,2.287-3.447,4.53-5.441,6.267l-2,1.61c-5.922,4.252-10.463,5.84-17.442,6.65c-2.976,0.348-5.815,0.596-8.737,0.127
		c-0.912-0.147-1.898-0.176-2.707-0.373l-4.081-1.102l-3.479-1.731c-0.067-0.035-0.165-0.082-0.232-0.117
		c-2.109-1.112-4.016-2.803-5.479-4.695c-3.669-4.752-6.363-9.966-7.439-15.838c-0.36-1.965-0.823-4.313-0.903-6.23l-0.671-6.407
		c0.796,0.645,0.741,1.465,0.84,2.718c0.1,1.286,0.374,1.712,0.724,3.264c1.367,6.044,3.028,12.563,7.088,17.394
		c1.117,1.329,2.719,3.247,3.98,4.217c0.098,0.074,1.142,1.077,2.842,1.851c3.314,1.509,4.106,1.85,10.962,2.387
		c4.36,0.344,7.397-1.702,12.26-2.561c2.629-0.463,3.998-1.146,6.038-2.165c2.12-1.06,3.038-1.817,4.487-3.27l4.505-6.152
		c1.731-3.798,3.117-7.69,3.339-11.937c0.447-8.57-2.133-15.624-7.138-22.444c-0.754-1.027-1.816-1.889-2.931-2.838
		c-1.519-1.293-3.179-2.565-5.042-3.243c-4.808-1.749-9.731-2.768-15.15-0.942l-0.116-0.347c3.095-1.043,3.908-0.939,6.968-1.224
		c2.188-0.202,4.044,0.064,6.156,0.418c2.587,0.433,5.208,1.798,7.364,3.229c4.438,2.944,8.439,7.828,10.146,12.778
		c0.589,1.709,1.095,1.999,1.454,3.312c0.407,1.491,1.744,5.692,1.79,7.252c0.041,1.393-0.221,1.714,0.281,3.321
		c0.195-0.474,0.365-0.84,0.446-1.514c0.056-0.462,0.019-0.382,0.04-0.848l0.025-0.565c0.004-0.09,0.012-0.192,0.015-0.281
		c0.292-7.327-1.194-13.124-5.021-19.219c-1.235-1.968-2.661-3.542-4.479-4.963c-0.062-0.048-0.146-0.112-0.208-0.162
		c-0.063-0.049-0.146-0.117-0.207-0.167c-0.436-0.362-0.664-0.587-1.198-1.082c-0.078-0.071-0.518-0.489-0.594-0.552l-0.64-0.458
		c-1.943-1.229-4.083-2.388-6.287-3.066c-1.137-0.351-2.537-0.599-3.438-1.233c3.091-0.763,8.662,2.266,11.35,3.941
		c0.253,0.157,0.547,0.376,0.859,0.6c1.594,1.144,3.227,2.333,4.476,3.802C128.958,107.613,131.359,110.756,133,115.623L133,115.623
		z"/>
	<path fill-rule="evenodd" clip-rule="evenodd" fill="#58595B" d="M115.768,89.726c-1.644-0.446-3.008-1.74-6.174-2.714
		l-0.996-0.323c-0.071-0.025-0.171-0.066-0.244-0.092l-0.738-0.261c-0.075-0.022-0.178-0.053-0.252-0.074
		c-1.878-0.542-3.672-0.623-5.682-0.791c-2.203-0.185-4.513-0.094-6.713,0.125c-1.521,0.151-2.458,0.431-4.111,0.709
		c-3.66,0.618-7.664,1.869-10.981,3.549c-0.967,0.49-2.897,1.244-3.854,1.848l-3.304,2.122c-4.271,2.897-7.607,6.313-10.628,10.345
		c-1.769,2.361-2.864,4.876-3.75,7.684c-0.109,0.346-0.128,0.405-0.248,0.745l-1.142,4.35c-0.426,2.527-0.45,4.964-0.501,7.56
		c-0.148,7.582,3.09,17.792,7.447,23.735c2.843,3.878,7.475,6.441,11.503,8.877c1.465,0.887,2.707,1.751,4.289,2.432l4.269,1.89
		c0.95,0.403,1.181,0.585,2.151,0.909c1.07,0.358,1.4,0.446,2.321,1.153c-0.952,0.062-2.063-0.189-2.963-0.439
		c-1.167-0.326-1.973-0.409-3.14-0.667c-1.754-0.388-4.213-1.516-5.956-1.403c1.38,2.08,4.776,2.155,6.616,3.57
		c-1.515,0.098-4.012-0.492-5.542-1.07l-4.833-1.919c-2.141-0.961-4.2-2.101-6.088-3.469l-2.938-2.238
		c-5.408-4.585-7.63-11.856-9.886-18.553c-1.188-3.527-1.596-9.102-1.642-12.672c-0.04-3.087,0.186-5.846,1.056-8.73
		c0.159-0.526,0.656-2.675,1.357-4.243l0.475-1.211c0.044-0.113,2.218-4.503,3.824-6.779c0.475-0.673,0.598-0.814,1.05-1.504
		l1.083-1.486c0.544-0.669,0.683-0.851,1.257-1.4l4.267-3.958c0.697-0.539,0.919-0.67,1.628-1.216
		c0.621-0.479,0.825-0.793,1.477-1.292c2.803-2.146,8.913-5.214,11.928-6.23c8.027-2.705,19.135-3.846,27.231-0.679l3.651,1.387
		C113.594,87.884,115.031,88.615,115.768,89.726L115.768,89.726z"/>
	<path fill-rule="evenodd" clip-rule="evenodd" fill="#58595B" d="M119.035,97.13c-0.899-0.02-0.56-0.061-1.248-0.398
		c-0.404-0.199-0.865-0.525-1.321-0.835c-1.118-0.761-1.541-0.976-2.707-1.541c-12.974-6.279-23.509-1.606-33.593,6.919
		c-2.377,2.012-1.331,1.208-3.288,3.286c-1.793,1.907-3.116,3.391-4.461,5.596c-0.192,0.317-0.163,0.27-0.403,0.668
		c-0.295,0.488-0.252,0.394-0.534,0.892c-2.104,3.733-2.689,5.418-3.803,9.394c-0.02,0.074-0.052,0.178-0.075,0.252
		c-0.021,0.074-0.057,0.175-0.08,0.249c-0.022,0.073-0.06,0.174-0.083,0.248c-0.8,2.525-1.182,4.678-1.295,7.166
		c-0.356,7.843,1.319,15.748,6.023,22.367c0.662,0.929,1.12,1.296,1.748,2.31c-1.254-0.34-0.484,0.083-1.345-0.789
		c-1.446-1.467-4.874-6.389-5.522-8.107c-2.765-7.338-3.442-7.397-3.763-16.909c-0.031-0.931-0.011-1.892,0.105-2.839l0.275-2.757
		c0.509-6.114,3.848-14.18,7.434-19.159c0.045-0.063,0.11-0.149,0.155-0.212c1.886-2.617,3.73-3.937,6.754-6.193
		c2.438-1.82,5.627-3.573,8.378-4.81c2.834-1.275,3.106-1.32,6.188-2.087c7.959-1.984,15.433-0.119,22.062,3.915
		C115.76,94.438,118.373,96.131,119.035,97.13L119.035,97.13z"/>
	<path fill-rule="evenodd" clip-rule="evenodd" fill="#58595B" d="M92.038,132.903c1.453-0.14,7.9,1.803,9.621-2.17
		c1.169-2.698-0.843-10.453-6.643-8.5c-1.542,0.52-1.244,0.806-3.008,1.4l-0.234-0.694c1.653-1.098,1.776-3.201,6.796-2.041
		c1.204,0.277,2.087,0.661,2.933,1.67c1.637,1.954,2.022,5.306,1.895,7.582C103.09,135.649,95.156,135.301,92.038,132.903
		L92.038,132.903z"/>
	<path d="M176.166,56.157h-8.69v1.745v4.177h-2.962v-3.833v-5.736h15.563v-1.745h-15.563v-4.071h3.733l11.178,0.026
		c1.066-0.018,1.955,0.313,2.667,0.991c0.711,0.679,1.066,1.696,1.066,3.053v1.745c0,1.339-0.313,2.282-0.938,2.829
		c-0.625,0.546-1.563,0.819-2.814,0.819l3.752,5.921h-3.239L176.166,56.157L176.166,56.157z"/>
	<path d="M203.589,57.902h2.607v4.177h-3.733h-11.178c-1.04,0-1.922-0.375-2.646-1.124s-1.086-1.652-1.086-2.709v-5.736h18.644
		v3.648h-15.682v1.745h2.489h7.781H203.589L203.589,57.902z M187.552,50.765v-0.238c0-1.058,0.362-1.96,1.086-2.71
		c0.724-0.749,1.606-1.123,2.646-1.123l11.178,0.026l3.733-0.026v4.071h-13.173h-1.046H187.552L187.552,50.765z"/>
	<path d="M210.591,50.765v-4.071h3.732l11.179,0.026c1.066-0.018,1.955,0.313,2.666,0.991c0.711,0.679,1.066,1.696,1.066,3.053
		v1.745c0,1.339-0.313,2.282-0.938,2.829c-0.625,0.546-1.563,0.819-2.814,0.819h-11.929v1.745v4.177h-2.962v-3.833v-5.736h15.563
		v-1.745H210.591L210.591,50.765z"/>
	<polygon points="243.978,52.668 242.932,50.765 239.317,50.765 241.45,46.694 242.951,46.694 244.452,46.694 252.273,62.079 
		249.311,62.079 245.953,56.157 244.373,56.157 242.596,56.157 240.028,56.157 236.592,62.079 233.629,62.079 238.448,52.668 
		241.806,52.668 243.978,52.668 	"/>
	<path d="M268.32,56.157h-8.69v1.745v4.177h-2.962v-3.833v-5.736h15.563v-1.745h-15.563v-4.071h3.732l11.179,0.026
		c1.066-0.018,1.955,0.313,2.666,0.991c0.711,0.679,1.066,1.696,1.066,3.053v1.745c0,1.339-0.313,2.282-0.938,2.829
		c-0.625,0.546-1.563,0.819-2.814,0.819l3.752,5.921h-3.239L268.32,56.157L268.32,56.157z"/>
	<polygon points="290.055,52.668 289.009,50.765 285.395,50.765 287.527,46.694 289.028,46.694 290.529,46.694 298.35,62.079 
		295.388,62.079 292.03,56.157 290.45,56.157 288.673,56.157 286.105,56.157 282.669,62.079 279.707,62.079 284.525,52.668 
		287.883,52.668 290.055,52.668 	"/>
	<polygon points="313.489,62.079 310.526,62.079 310.526,50.765 307.169,50.765 302.745,50.765 302.745,46.694 306.478,46.694 
		317.656,46.72 321.389,46.694 321.389,50.765 313.489,50.765 313.489,62.079 	"/>
	<polygon points="328.746,62.079 325.783,62.079 325.783,50.765 325.783,46.694 328.746,46.694 328.746,50.765 328.746,52.457 
		328.746,55.787 328.746,62.079 	"/>
	<polygon points="336.143,62.079 333.18,62.079 333.18,50.765 333.18,46.694 336.143,46.694 336.143,50.765 336.143,52.457 
		336.143,55.787 336.143,62.079 	"/>
	<polygon points="375.021,62.079 372.058,62.079 372.058,50.765 368.7,50.765 364.276,50.765 364.276,46.694 368.009,46.694 
		379.188,46.72 382.92,46.694 382.92,50.765 375.021,50.765 375.021,62.079 	"/>
	<path d="M403.016,55.734v-2.96l-0.02-6.08h2.962v3.859v7.692c0,1.057-0.362,1.96-1.086,2.709s-1.606,1.124-2.646,1.124h-11.179
		c-1.04,0-1.922-0.375-2.646-1.124c-0.725-0.749-1.087-1.652-1.087-2.709V46.694h2.963v9.093c0,0.564,0.236,1.058,0.711,1.48
		c0.474,0.423,1.066,0.634,1.777,0.634h7.781c0.632,0,1.201-0.216,1.709-0.647C402.762,56.823,403.016,56.316,403.016,55.734
		L403.016,55.734z"/>
	<path d="M422.006,56.157h-8.69v1.745v4.177h-2.962v-3.833v-5.736h15.563v-1.745h-15.563v-4.071h3.732l11.179,0.026
		c1.066-0.018,1.955,0.313,2.666,0.991c0.711,0.679,1.066,1.696,1.066,3.053v1.745c0,1.339-0.313,2.282-0.938,2.829
		c-0.625,0.546-1.563,0.819-2.814,0.819l3.753,5.921h-3.239L422.006,56.157L422.006,56.157z"/>
	<path d="M448.955,56.157h-11.179h-1.422v1.851h6.3h6.301V56.157L448.955,56.157z M436.354,52.509h12.601v-1.745h-15.563v-4.071
		h3.733l11.178,0.026c1.066-0.018,1.955,0.313,2.666,0.991c0.711,0.679,1.066,1.696,1.066,3.053v1.745
		c-0.053,1.022-0.697,1.692-1.936,2.009c1.238,0.142,1.883,0.723,1.936,1.745v1.745c0,1.357-0.355,2.375-1.066,3.053
		c-0.711,0.678-1.605,1.018-2.686,1.018h-11.158h-3.733v-9.569H436.354L436.354,52.509z"/>
	<path d="M456.431,58.246v-7.719c0-1.058,0.362-1.96,1.086-2.71c0.724-0.749,1.606-1.123,2.646-1.123l11.179,0.026
		c1.04,0,1.922,0.375,2.646,1.124c0.724,0.749,1.086,1.652,1.086,2.709v7.692c0,1.057-0.362,1.96-1.086,2.709
		c-0.725,0.749-1.606,1.124-2.646,1.124h-11.179c-1.04,0-1.923-0.375-2.646-1.124S456.431,59.303,456.431,58.246L456.431,58.246z
		 M472.132,55.734v-2.96c-0.093-0.529-0.369-0.996-0.83-1.401s-1.04-0.608-1.738-0.608h-7.662c-0.698,0-1.284,0.203-1.758,0.608
		s-0.725,0.89-0.751,1.454v2.96c0,0.564,0.237,1.058,0.711,1.48c0.475,0.423,1.066,0.634,1.778,0.634h7.682
		c0.698,0,1.301-0.216,1.808-0.647S472.132,56.316,472.132,55.734L472.132,55.734z"/>
	<path fill-rule="evenodd" clip-rule="evenodd" fill="#58595B" d="M166.614,164.868h155.017v9.469H161.858
		C163.614,171.31,165.206,168.148,166.614,164.868L166.614,164.868z"/>
	<polygon fill-rule="evenodd" clip-rule="evenodd" fill="#58595B" points="668.688,192.349 676.543,192.349 680.428,182.88 
		668.683,182.88 668.688,192.349 	"/>
	<path fill-rule="evenodd" clip-rule="evenodd" fill="#58595B" d="M153.301,182.881h168.33v9.468H143.809
		C147.205,189.498,150.381,186.329,153.301,182.881L153.301,182.881z"/>
	<polygon fill-rule="evenodd" clip-rule="evenodd" fill="#58595B" points="668.679,174.336 683.934,174.336 687.818,164.868 
		668.674,164.868 668.679,174.336 	"/>
</g>
</svg>
